<svg width="24" height="14" viewBox="0 0 24 14" fill="none" xmlns="http://www.w3.org/2000/svg">
<path d="M17.077 1H23V6.92308" stroke="black" stroke-linecap="round" stroke-linejoin="round"/>
<path d="M1 12.8462L7.41861 6.42759C7.57576 6.2704 7.76233 6.14571 7.96768 6.06064C8.17302 5.97557 8.39312 5.93178 8.61538 5.93178C8.83765 5.93178 9.05775 5.97557 9.26309 6.06064C9.46844 6.14571 9.65501 6.2704 9.81216 6.42759L12.4955 9.11095C12.6527 9.26814 12.8393 9.39283 13.0446 9.4779C13.2499 9.56297 13.47 9.60675 13.6923 9.60675C13.9146 9.60675 14.1347 9.56297 14.34 9.4779C14.5454 9.39283 14.7319 9.26814 14.8891 9.11095L22.1538 1.84619" stroke="black" stroke-linecap="round" stroke-linejoin="round"/>
</svg>
