<svg width="23" height="17" viewBox="0 0 23 17" fill="none" xmlns="http://www.w3.org/2000/svg">
<path d="M18.3443 4.375C18.2069 6.28141 16.7927 7.75 15.2505 7.75C13.7084 7.75 12.2918 6.28188 12.1568 4.375C12.0162 2.39172 13.3929 1 15.2505 1C17.1082 1 18.4849 2.42781 18.3443 4.375Z" stroke="black" stroke-linecap="round" stroke-linejoin="round"/>
<path d="M15.2504 10.75C12.1955 10.75 9.25786 12.2673 8.52193 15.2223C8.42443 15.6133 8.66958 16 9.0713 16H21.4299C21.8316 16 22.0754 15.6133 21.9793 15.2223C21.2433 12.22 18.3057 10.75 15.2504 10.75Z" stroke="black" stroke-miterlimit="10"/>
<path d="M8.87551 5.21594C8.76582 6.73844 7.62301 7.9375 6.39113 7.9375C5.15926 7.9375 4.01457 6.73891 3.90676 5.21594C3.79473 3.63203 4.90707 2.5 6.39113 2.5C7.8752 2.5 8.98754 3.66109 8.87551 5.21594Z" stroke="black" stroke-linecap="round" stroke-linejoin="round"/>
<path d="M9.15671 10.8438C8.31061 10.4562 7.37874 10.3071 6.39108 10.3071C3.95358 10.3071 1.60515 11.5188 1.01686 13.879C0.939521 14.1912 1.13546 14.5001 1.45608 14.5001H6.71921" stroke="black" stroke-miterlimit="10" stroke-linecap="round"/>
</svg>
